<svg xmlns="http://www.w3.org/2000/svg" style="display: none;">
  <!-- Theme Icons -->
  <symbol id="icon-sun" viewBox="0 0 24 24" fill="none" stroke="currentColor">
    <circle cx="12" cy="12" r="4"/>
    <path d="M12 2v2m0 16v2M4 12H2m20 0h-2m-2.05-6.95L16.24 7.76M7.76 16.24 6.05 17.95M17.95 17.95 16.24 16.24M7.76 7.76 6.05 6.05"/>
  </symbol>
  
  <symbol id="icon-moon" viewBox="0 0 24 24" fill="none" stroke="currentColor">
    <path d="M12 3a6 6 0 0 0 9 9 9 9 0 1 1-9-9z"/>
  </symbol>
  
  <!-- Search Icons -->
  <symbol id="icon-search" viewBox="0 0 24 24" fill="none" stroke="currentColor">
    <circle cx="11" cy="11" r="7"/>
    <path d="m21 21-5.2-5.2"/>
  </symbol>
  
  <!-- Navigation Icons -->
  <symbol id="icon-menu" viewBox="0 0 24 24" fill="none" stroke="currentColor">
    <path d="M4 6h16M4 12h16M4 18h16"/>
  </symbol>
  
  <symbol id="icon-close" viewBox="0 0 24 24" fill="none" stroke="currentColor">
    <path d="M18 6 6 18M6 6l12 12"/>
  </symbol>
  
  <!-- Action Icons -->
  <symbol id="icon-copy" viewBox="0 0 24 24" fill="none" stroke="currentColor">
    <path d="M8 4v12a2 2 0 0 0 2 2h8a2 2 0 0 0 2-2V7.242a2 2 0 0 0-.602-1.43L16.083 2.57A2 2 0 0 0 14.685 2H10a2 2 0 0 0-2 2z"/>
    <path d="M16 18v2a2 2 0 0 1-2 2H6a2 2 0 0 1-2-2V9a2 2 0 0 1 2-2h2"/>
  </symbol>
  
  <!-- Project Icons -->
  <symbol id="icon-external" viewBox="0 0 24 24" fill="none" stroke="currentColor">
    <path d="M18 13v6a2 2 0 0 1-2 2H5a2 2 0 0 1-2-2V8a2 2 0 0 1 2-2h6"/>
    <path d="M15 3h6v6"/>
    <path d="M10 14 21 3"/>
  </symbol>
  
  <symbol id="icon-github" viewBox="0 0 24 24" fill="none" stroke="currentColor">
    <path d="M9 19c-4.3 1.4-4.3-2.5-6-3m12 5v-3.5c0-1 .1-1.4-.5-2 2.8-.3 5.5-1.4 5.5-6a4.6 4.6 0 0 0-1.3-3.2 4.2 4.2 0 0 0-.1-3.2s-1.1-.3-3.5 1.3a12.3 12.3 0 0 0-6.2 0C6.5 2.8 5.4 3.1 5.4 3.1a4.2 4.2 0 0 0-.1 3.2A4.6 4.6 0 0 0 4 9.5c0 4.6 2.7 5.7 5.5 6-.6.6-.6 1.2-.5 2V21"/>
  </symbol>
</svg>